<?xml version="1.0" encoding="utf-8"?>
<!-- Generator: Adobe Illustrator 23.0.3, SVG Export Plug-In . SVG Version: 6.00 Build 0)  -->
<svg version="1.1" id="Layer_1" xmlns="http://www.w3.org/2000/svg" xmlns:xlink="http://www.w3.org/1999/xlink" x="0px" y="0px"
	 viewBox="0 0 830.2 348.1" style="enable-background:new 0 0 830.2 348.1;" xml:space="preserve">
<g>
	<path d="M662.2,82.7c-0.7,0-1.4,0-2.1,0c-14.9,0-29.8-0.2-44.7,0.1c-10.2,0.2-17.8-4.1-23.7-12c-6.5-8.7-10-18.6-12.6-29
		c-0.7-3-1.3-6.1-2-9.6c4.5,2.3,8.8,2.4,13.3,2.4c37.9,0,75.7,0,113.6,0c7,0,14.1-0.4,21.2-2.3c9.5,22.7,25.1,39.9,47.6,50.5
		c0,0.1,0.1,0.3,0.1,0.4c-5.6,7.7-7.4,16.7-8.3,25.8c-1.3,14.3-1.5,28.6-0.6,42.9c0.6,9.1,3,17.6,8.9,24.8
		c-3.9,1.8-7.8,3.3-11.5,5.3c-14,7.4-25.5,18-35.9,29.7c-8.2,9.3-15.4,19.2-21.9,30c-14.2-12.3-30.4-19.7-49.6-21.1
		c0,0.9,0,1.7,0,2.4c0,13.6-0.2,27.3,0.1,40.9c0.3,15.6-6.2,27.7-18.1,37.3c-12.1,9.8-26.3,15.2-41.2,18.9c-0.6,0.1-1.1,0.3-1.7,0.4
		c-0.1,0-0.1,0-0.2-0.1c10.4-9.8,12-22.7,12.2-35.9c0.3-17.7,0.1-35.5,0.1-53.3c0-0.3-0.1-0.7-0.2-1.7c-7.1,3.9-14,7.7-21.2,11.6
		c0.4-3,0.7-5.9,1.3-8.8c2.9-13.7,9.1-25.6,19-35.5c0.5-0.5,0.9-1.2,0.9-1.8c0.1-7.7,0-15.4,0-23.5c-7.5,3-14.3,7-20.9,11.3
		c-0.2-0.1-0.5-0.2-0.7-0.3c1.1-5,1.8-10,3.3-14.9c3.3-11.2,9.1-20.9,17.3-29.2c0.7-0.7,1.3-1.7,1.4-2.6c2-18,10.9-31.6,26-41.2
		C641,88.7,651.3,85.2,662.2,82.7z M655,108.2c21.2,0,42.2,0,63.1,0c0-8.6,0-17,0-25.5c-1,0-1.9,0-2.8,0c-15.6,0-31.1,0.2-46.7-0.1
		c-3.8-0.1-6,1.4-7.7,4.4c-0.6,1.1-1.2,2.2-1.7,3.3C656.9,95.9,655.8,101.9,655,108.2z M654.1,145.5c21.5,0,42.8,0,64.1,0
		c0-7.9,0-15.6,0-23.5c-21.4,0-42.7,0-64.1,0C654.1,129.9,654.1,137.6,654.1,145.5z M718.3,159.3c-21.6,0-42.9,0-64.1,0
		c0,5.2,0,10.2,0,15.3c16-0.8,30.5,3.2,43.3,12.9c5.1-8.6,12-15.4,20-21.1c0.4-0.3,0.7-1.1,0.8-1.6
		C718.3,163,718.3,161.3,718.3,159.3z"/>
</g>
<path d="M314.3,33.5c-78.9,0-142.9,64-142.9,142.9s64,142.9,142.9,142.9s142.9-64,142.9-142.9S393.2,33.5,314.3,33.5z M388.5,98.3
	c19.5,0,35.3,15.8,35.3,35.3c0,19.5-15.8,35.3-35.3,35.3c-19.5,0-35.3-15.8-35.3-35.3C353.3,114,369.1,98.3,388.5,98.3z M314.3,56.6
	c19.5,0,35.3,15.8,35.3,35.3c0,19.5-15.8,35.3-35.3,35.3S279,111.3,279,91.8C279,72.3,294.8,56.6,314.3,56.6z M297,198.9
	c3.7,0,6.8,3,6.8,6.8c0,3.7-3,6.8-6.8,6.8c-3.7,0-6.8-3-6.8-6.8C290.2,202,293.3,198.9,297,198.9z M290.2,147.2c0-3.7,3-6.8,6.8-6.8
	c3.7,0,6.8,3,6.8,6.8c0,3.7-3,6.8-6.8,6.8C293.3,154,290.2,151,290.2,147.2z M294.4,176.5c0-10.9,8.9-19.8,19.8-19.8
	c10.9,0,19.8,8.9,19.8,19.8c0,10.9-8.9,19.8-19.8,19.8C303.3,196.3,294.4,187.4,294.4,176.5z M331.5,198.9c3.7,0,6.8,3,6.8,6.8
	c0,3.7-3,6.8-6.8,6.8c-3.7,0-6.8-3-6.8-6.8C324.7,202,327.8,198.9,331.5,198.9z M331.5,154c-3.7,0-6.8-3-6.8-6.8
	c0-3.7,3-6.8,6.8-6.8c3.7,0,6.8,3,6.8,6.8C338.3,151,335.2,154,331.5,154z M240,98.3c19.5,0,35.3,15.8,35.3,35.3
	c0,19.5-15.8,35.3-35.3,35.3c-19.5,0-35.3-15.8-35.3-35.3C204.7,114,220.5,98.3,240,98.3z M240,254.8c-19.5,0-35.3-15.8-35.3-35.3
	c0-19.5,15.8-35.3,35.3-35.3c19.5,0,35.3,15.8,35.3,35.3C275.2,239,259.5,254.8,240,254.8z M273.5,176.5c0-3.7,3-6.8,6.8-6.8
	s6.8,3,6.8,6.8c0,3.7-3,6.8-6.8,6.8S273.5,180.2,273.5,176.5z M314.3,296.7c-19.5,0-35.3-15.8-35.3-35.3s15.8-35.3,35.3-35.3
	s35.3,15.8,35.3,35.3S333.7,296.7,314.3,296.7z M348.2,183.3c-3.7,0-6.8-3-6.8-6.8c0-3.7,3-6.8,6.8-6.8c3.7,0,6.8,3,6.8,6.8
	C355,180.2,352,183.3,348.2,183.3z M388.5,254.8c-19.5,0-35.3-15.8-35.3-35.3c0-19.5,15.8-35.3,35.3-35.3
	c19.5,0,35.3,15.8,35.3,35.3C423.8,239,408,254.8,388.5,254.8z"/>
<path d="M208.7,282c-3.5-3.5-6.8-7.1-9.9-10.9v17.3h-38.7v-18.5v-18.5h25c-4.3-7.4-8-15.1-10.9-23.1H64.7c-4.6,0-8.4,3.8-8.4,8.4
	v33.3v33.3c0,4.6,3.8,8.4,8.4,8.4h181.5c1.1,0,2.2-0.2,3.2-0.6C234.5,303.7,220.8,294,208.7,282z M159,233.4c0-0.8,0.6-1.4,1.4-1.4
	h6.8c0.8,0,1.4,0.6,1.4,1.4v9.7c0,0.8-0.6,1.4-1.4,1.4h-6.8c-0.8,0-1.4-0.6-1.4-1.4V233.4z M126.1,233.4c0-0.8,0.6-1.4,1.4-1.4h6.8
	c0.8,0,1.4,0.6,1.4,1.4v9.7c0,0.8-0.6,1.4-1.4,1.4h-6.8c-0.8,0-1.4-0.6-1.4-1.4V233.4z M150.3,251.4v18.5v18.5h-38.7v-18.5v-18.5
	H150.3z M109.6,233.4c0-0.8,0.6-1.4,1.4-1.4h6.8c0.8,0,1.4,0.6,1.4,1.4v9.7c0,0.8-0.6,1.4-1.4,1.4H111c-0.8,0-1.4-0.6-1.4-1.4V233.4
	z M78,233.4c0-0.8,0.6-1.4,1.4-1.4h6.8c0.8,0,1.4,0.6,1.4,1.4v9.7c0,0.8-0.6,1.4-1.4,1.4h-6.8c-0.8,0-1.4-0.6-1.4-1.4V233.4z
	 M101.2,251.4v18.5v18.5H66.7v-18.5v-18.5H101.2z M61.9,233.4c0-0.8,0.6-1.4,1.4-1.4h6.8c0.8,0,1.4,0.6,1.4,1.4v9.7
	c0,0.8-0.6,1.4-1.4,1.4h-6.8c-0.8,0-1.4-0.6-1.4-1.4V233.4z M71.5,306.4c0,0.8-0.6,1.4-1.4,1.4h-6.8c-0.8,0-1.4-0.6-1.4-1.4v-9.7
	c0-0.8,0.6-1.4,1.4-1.4h6.8c0.8,0,1.4,0.6,1.4,1.4V306.4z M87.6,306.4c0,0.8-0.6,1.4-1.4,1.4h-6.8c-0.8,0-1.4-0.6-1.4-1.4v-9.7
	c0-0.8,0.6-1.4,1.4-1.4h6.8c0.8,0,1.4,0.6,1.4,1.4V306.4z M104,306.4c0,0.8-0.6,1.4-1.4,1.4h-6.8c-0.8,0-1.4-0.6-1.4-1.4v-9.7
	c0-0.8,0.6-1.4,1.4-1.4h6.8c0.8,0,1.4,0.6,1.4,1.4V306.4z M104,243.1c0,0.8-0.6,1.4-1.4,1.4h-6.8c-0.8,0-1.4-0.6-1.4-1.4v-9.7
	c0-0.8,0.6-1.4,1.4-1.4h6.8c0.8,0,1.4,0.6,1.4,1.4V243.1z M119.2,306.4c0,0.8-0.6,1.4-1.4,1.4H111c-0.8,0-1.4-0.6-1.4-1.4v-9.7
	c0-0.8,0.6-1.4,1.4-1.4h6.8c0.8,0,1.4,0.6,1.4,1.4V306.4z M135.7,306.4c0,0.8-0.6,1.4-1.4,1.4h-6.8c-0.8,0-1.4-0.6-1.4-1.4v-9.7
	c0-0.8,0.6-1.4,1.4-1.4h6.8c0.8,0,1.4,0.6,1.4,1.4V306.4z M151.8,306.4c0,0.8-0.6,1.4-1.4,1.4h-6.8c-0.8,0-1.4-0.6-1.4-1.4v-9.7
	c0-0.8,0.6-1.4,1.4-1.4h6.8c0.8,0,1.4,0.6,1.4,1.4V306.4z M151.8,243.1c0,0.8-0.6,1.4-1.4,1.4h-6.8c-0.8,0-1.4-0.6-1.4-1.4v-9.7
	c0-0.8,0.6-1.4,1.4-1.4h6.8c0.8,0,1.4,0.6,1.4,1.4V243.1z M168.6,306.4c0,0.8-0.6,1.4-1.4,1.4h-6.8c-0.8,0-1.4-0.6-1.4-1.4v-9.7
	c0-0.8,0.6-1.4,1.4-1.4h6.8c0.8,0,1.4,0.6,1.4,1.4V306.4z M185.3,306.4c0,0.8-0.6,1.4-1.4,1.4h-6.8c-0.8,0-1.4-0.6-1.4-1.4v-9.7
	c0-0.8,0.6-1.4,1.4-1.4h6.8c0.8,0,1.4,0.6,1.4,1.4V306.4z M200.3,306.4c0,0.8-0.6,1.4-1.4,1.4h-6.8c-0.8,0-1.4-0.6-1.4-1.4v-9.7
	c0-0.8,0.6-1.4,1.4-1.4h6.8c0.8,0,1.4,0.6,1.4,1.4V306.4z M216.7,306.4c0,0.8-0.6,1.4-1.4,1.4h-6.8c-0.8,0-1.4-0.6-1.4-1.4v-9.7
	c0-0.8,0.6-1.4,1.4-1.4h6.8c0.8,0,1.4,0.6,1.4,1.4V306.4z"/>
<rect x="517.2" y="63.5" width="6" height="228"/>
</svg>
